<?xml version="1.0" encoding="UTF-8"?>
<svg xmlns="http://www.w3.org/2000/svg" version="1.1" viewBox="0 0 110 135">
  <defs>
    <style>
      .cls-1 {
        fill: #ffe600;
        fill-rule: evenodd;
      }
    </style>
  </defs>
  <!-- Generator: Adobe Illustrator 28.6.0, SVG Export Plug-In . SVG Version: 1.2.0 Build 709)  -->
  <g>
    <g id="Layer_1">
      <path class="cls-1" d="M11,43v45c0,1.2,1,2,2,2h84c1.1,0,2-.9,2-2v-45c0-1.1-.9-2-2-2h-13.6l-1-3.3c-1.2-4-4.9-6.7-9.1-6.7h-18.8c-3.9,0-7.3,2.4-8.8,5.9l-1.6,4.1h-11.1v-4.5c0-1.1-.9-2-2-2h-15c-1.1,0-2,.9-2,2v4.5h-1c-1.1,0-2,.9-2,2h0ZM15,45.5v40.5h18v-40.5H15ZM63.5,47c-10.2,0-18.5,8.3-18.5,18.5s8.3,18.5,18.5,18.5,18.5-8.3,18.5-18.5-8.3-18.5-18.5-18.5Z"/>
    </g>
  </g>
</svg>